# xmcd
#
# Track frame offsets: 
#        150
#        12138
#        24672
#        36321
#        48225
#        59666
#        73615
#        81666
#        98953
#        110808
#        122126
#        136211
#        150767
#        162715
#        176988
#        190945
#
# Disc length: 2671 seconds
#
# Revision: 0
# Processed by: cddbd v1.5.2PL0 Copyright (c) Steve Scherf et al.
# Submitted via: ExactAudioCopy v1.3
#
DISCID=e60a6d10
DTITLE=Port Arthur Bluegrass Band - Hillbilly Fever And Honky Tonk Hea
DTITLE=rts
DYEAR=2018
DGENRE=Bluegrass
TTITLE0=I'll Never Shed Another Tear
TTITLE1=Devil In Disguise
TTITLE2=Fourteen Carat Mind
TTITLE3=Dim Lights Thick Smoke
TTITLE4=I'm Working On A Road
TTITLE5=Kentucky Mandolin
TTITLE6=Big Ball In Boston
TTITLE7=Lost Highway
TTITLE8=Hillbilly Fever
TTITLE9=She's Gone Gone Gone
TTITLE10=Help
TTITLE11=Dear Old Dixie
TTITLE12=Maybe You Will Change Your Mind
TTITLE13=She's No Angel
TTITLE14=Stone Walls And Steel Bars
TTITLE15=Three Miles South Of Cash In Arkansas
EXTD=
EXTT0=
EXTT1=
EXTT2=
EXTT3=
EXTT4=
EXTT5=
EXTT6=
EXTT7=
EXTT8=
EXTT9=
EXTT10=
EXTT11=
EXTT12=
EXTT13=
EXTT14=
EXTT15=
PLAYORDER=
